<?xml version="1.0" encoding="utf-8"?>
<!-- Generator: Adobe Illustrator 19.2.1, SVG Export Plug-In . SVG Version: 6.00 Build 0)  -->
<!DOCTYPE svg PUBLIC "-//W3C//DTD SVG 1.1//EN" "http://www.w3.org/Graphics/SVG/1.1/DTD/svg11.dtd">
<svg version="1.1" id="Layer_1" xmlns="http://www.w3.org/2000/svg" xmlns:xlink="http://www.w3.org/1999/xlink" x="0px" y="0px"
	 width="99.8px" height="99.7px" viewBox="0 0 99.8 99.7" style="enable-background:new 0 0 99.8 99.7;" xml:space="preserve">
<style type="text/css">
	.st0{fill:#ffffff;}
</style>
<title>jc-ico</title>
<path class="st0" d="M55.6,49.9l43-43c1.6-1.6,1.6-4.1,0.1-5.7c-1.6-1.6-4.1-1.6-5.7-0.1l-43,43l-43-43c-1.6-1.6-4.1-1.6-5.7,0
	s-1.6,4.1,0,5.7l43,43l-43,43c-1.6,1.6-1.6,4.1,0,5.7s4.1,1.6,5.7,0l43-43l43,43c1.6,1.6,4.1,1.6,5.7,0s1.6-4.1,0-5.7L55.6,49.9z"/>
</svg>
