<?xml version="1.0" encoding="UTF-8" standalone="no"?><!DOCTYPE svg PUBLIC "-//W3C//DTD SVG 1.1//EN" "http://www.w3.org/Graphics/SVG/1.1/DTD/svg11.dtd"><svg width="100%" height="100%" viewBox="0 0 240 240" version="1.1" xmlns="http://www.w3.org/2000/svg" xmlns:xlink="http://www.w3.org/1999/xlink" xml:space="preserve" xmlns:serif="http://www.serif.com/" style="fill-rule:evenodd;clip-rule:evenodd;stroke-linejoin:round;stroke-miterlimit:1.41421;"><rect id="Standard" x="0" y="0" width="240" height="240" style="fill:none;"/><g id="SG-Bistro" serif:id="SG Bistro"><path id="name" d="M98.006,156.85c-0.167,0.783 -0.334,1.566 -0.489,2.348c0.038,-1.971 -1.559,-2.245 -3.231,-2.084c-2.356,0.226 -4.354,1.738 -5.873,3.457c-2.398,2.713 -3.809,6.363 -4.48,9.875c-0.661,3.454 0.439,4.824 -2.268,7.396c-0.639,0.608 -1.389,1.105 -2.171,1.515c1.436,-6.762 2.863,-13.526 4.304,-20.286c-1.943,0.383 -3.888,0.769 -5.832,1.161c-0.162,0.755 -0.325,1.519 -0.476,2.274c0.002,-0.083 0.003,-0.168 0.005,-0.251c0.029,-1.749 -2.1,-1.725 -3.253,-1.368c-2.739,0.847 -4.016,1.713 -5.862,3.925c-3.169,3.796 -6.028,10.803 -4.352,15.803c1.632,4.865 7.689,1.835 9.773,-0.787c-0.174,0.765 -0.348,1.524 -0.523,2.289c-1.501,0.727 -3.273,1.78 -4.467,2.966c-1.843,1.832 -3.847,6.45 -0.01,7.509c3.292,0.908 6.901,-1.592 8.319,-4.39c1.161,-2.29 1.448,-4.501 1.974,-6.943c2.038,-0.84 3.816,-2.294 5.052,-4.116c0.805,1.923 2.652,2.82 4.684,2.541c2.739,-0.385 4.731,-2.391 6.106,-4.65c0.044,0.566 0.15,1.138 0.366,1.662c1.685,4.08 7.22,0.953 8.962,-1.237l-0.533,2.482c1.93,-0.135 3.87,-0.243 5.811,-0.356c1.192,-5.577 2.384,-11.155 3.599,-16.728c0.311,-0.316 0.614,-0.644 0.961,-0.921c0.29,-0.231 0.599,-0.449 0.941,-0.594c2.968,-1.26 0.784,2.601 3.355,2.57c0.445,-0.005 0.901,-0.109 1.297,-0.311c-1.774,3.529 -3.028,8.209 -1.947,12.138c0.217,0.789 0.617,1.547 1.143,2.175c2.977,3.544 7.852,0.632 9.748,-2.362c0.058,0.553 0.179,1.108 0.397,1.619c1.862,4.365 7.762,1.673 9.697,-1.012c1.324,4.008 5.926,4.859 9.6,3.833c2.112,-0.589 4.023,-2.111 5.41,-3.748l0.057,-0.069l-0.985,4.67c1.925,0.213 3.862,0.445 5.799,0.677c0.463,-2.181 0.925,-4.362 1.394,-6.541c0.468,-2.169 0.851,-4.359 1.418,-6.505c0.238,-0.902 0.951,-2.438 1.838,-2.987c1.723,-1.069 2.783,0.445 2.774,2.077c-0.023,3.995 -2.687,8.313 -1.634,12.014c1.042,3.659 6.206,4.928 8.993,2.362c1.45,-1.335 2.348,-3.167 3.034,-4.972c-0.568,-0.103 -1.137,-0.206 -1.693,-0.309c-0.332,0.741 -1.057,2.327 -1.931,2.766c-1.47,0.739 -3.064,-0.177 -3.077,-1.799c-0.036,-4.471 4.777,-11.269 -0.161,-14.78c-0.671,-0.477 -1.483,-0.768 -2.293,-0.918c-1.778,-0.334 -3.422,0.176 -4.731,1.45c0.143,-0.695 0.298,-1.39 0.452,-2.088c-1.936,-0.343 -3.872,-0.649 -5.797,-0.95c-0.739,3.39 -2.097,10.065 -2.799,12.995c-1.386,2.308 -4.099,3.749 -7.204,3.651c-1.099,-0.035 -2.178,-0.488 -2.611,-1.592c-0.47,-1.196 -0.372,-2.684 -0.292,-3.956c1.171,0.022 2.362,-0.152 3.474,-0.518c1.061,-0.348 2.089,-0.878 2.947,-1.592c3.586,-2.981 4.1,-9.999 -1.769,-10.47c-1.069,-0.085 -2.175,-0.085 -3.212,0.188c-0.925,0.243 -1.784,0.746 -2.545,1.326c-0.761,0.58 -1.397,1.324 -1.953,2.102c-1.136,1.591 -1.855,3.568 -2.333,5.441c-0.487,1.905 -0.75,3.974 -0.606,5.944l-0.011,0.02c-0.609,1.033 -2.546,2.636 -3.798,1.32c-0.615,-0.647 -0.325,-1.904 -0.155,-2.65c1.709,-7.516 3.295,-15.059 5.039,-22.566l-5.717,-0.035c-0.756,3.282 -1.514,6.573 -2.26,9.873c0.002,-0.056 0.004,-0.116 0.005,-0.172c0.053,-1.79 -1.81,-2.235 -3.205,-2.331c-2.762,-0.189 -5.187,1.517 -6.828,3.608c0.008,-0.084 0.014,-0.167 0.016,-0.252c0.013,-0.538 -0.076,-1.095 -0.29,-1.59c-1.574,-3.637 -5.684,-0.362 -7.373,1.211c0.194,-0.899 0.388,-1.813 0.595,-2.717c-1.941,0.095 -3.881,0.207 -5.823,0.324c-0.801,3.673 -3.065,14.144 -3.065,14.144c0.029,0.039 -0.951,2.903 -1.958,3.65c-1.687,1.252 -3.006,0.78 -3.044,-1.027c-0.005,-0.272 0.148,-1.194 0.192,-1.401c0.524,-2.498 1.057,-4.995 1.59,-7.491c0.535,-2.505 1.075,-5.009 1.613,-7.513c-1.941,0.182 -3.884,0.369 -5.814,0.584m-25.166,27.41c-0.089,0.416 -0.175,0.833 -0.263,1.241c-0.086,0.396 -0.19,0.788 -0.312,1.174c-0.106,0.332 -0.23,0.66 -0.372,0.979c-0.379,0.854 -1.277,2.419 -2.465,1.839c-0.195,-0.095 -0.348,-0.252 -0.446,-0.43c-0.381,-0.697 0.009,-1.565 0.428,-2.149c0.825,-1.148 2.246,-2.001 3.43,-2.654m2.621,-21.091c0.652,-0.149 1.825,0.271 1.641,1.173c-0.704,3.444 -1.361,6.9 -2.223,10.307c-0.309,1.222 -1.074,2.477 -2.07,3.27c-0.93,0.74 -2.597,1.128 -2.999,-0.402c-0.318,-1.206 -0.163,-2.822 0.026,-4c0.417,-2.602 1.214,-5.331 2.6,-7.594c0.672,-1.096 1.653,-2.446 3.025,-2.754m21.648,-2.116c-0.683,3.331 -1.316,6.674 -2.128,9.976c-0.367,1.489 -0.928,2.651 -2.15,3.59c-0.546,0.42 -1.899,0.991 -2.56,0.298c-1.144,-1.198 -0.68,-3.707 -0.454,-5.09c0.548,-3.352 1.633,-6.913 4.043,-9.413c0.782,-0.811 3.644,-1.296 3.249,0.639m31.596,8.671c-0.348,1.321 -0.981,2.43 -2.158,3.154c-1.228,0.755 -2.685,0.387 -3.009,-1.099c-0.655,-3.006 0.402,-6.701 1.598,-9.43c0.646,-1.474 1.704,-3.603 3.399,-4.169c1.147,-0.383 2.317,0.202 2.436,1.452c-0.757,3.291 -2.264,10.022 -2.266,10.092m15.873,-2.311c0.261,-1.47 0.798,-3.413 1.391,-4.795c0.279,-0.652 0.63,-1.273 0.992,-1.884c0.5,-0.841 2.359,-2.541 3.142,-1.009c0.366,0.717 0.251,1.86 0.124,2.58c-0.482,2.734 -2.771,5.115 -5.649,5.108m-63.597,-28.476c-0.266,-2.779 -4.174,-1.909 -5.683,-1.098c-2.804,1.506 -4.79,5.266 -3.451,8.406c1.18,2.765 4.147,2.865 6.699,2.773c6.264,-0.223 12.933,-3.53 12.83,-10.656c-0.044,-2.911 -1.465,-4.966 -3.668,-6.688c-2.115,-1.653 -5.514,-2.799 -5.593,-6.013c-0.054,-2.207 1.631,-3.521 3.649,-3.833c2.214,-0.343 3.538,1.15 2.812,3.26c-0.145,0.421 -0.358,0.824 -0.623,1.182c-0.262,0.354 -0.579,0.678 -0.94,0.929c2.33,1.979 5.201,-1.11 5.11,-3.517c-0.193,-5.132 -7.265,-3.756 -10.176,-2.505c-1.051,0.452 -2.058,1.049 -2.926,1.793c-0.78,0.67 -1.38,1.534 -1.949,2.39c-1.386,2.084 -0.542,4.682 1.012,6.361c2.972,3.211 8.828,5.973 6.177,11.442c-1.039,2.142 -3.905,3.371 -6.168,2.57c-2.57,-0.91 -1.974,-4.204 -0.271,-5.545c0.859,-0.676 2.091,-1.101 3.159,-1.251m17.937,-0.323c3.58,-0.483 6.706,-2.23 8.438,-5.36c1.74,-3.301 0.53,-6.738 -3.762,-6.238c-5.342,0.623 -8.607,4.557 -10.035,9.474c-0.785,2.705 -1.595,8.519 2.401,9.363c1.089,0.229 2.212,0.412 3.322,0.326c1.248,-0.096 2.489,-0.411 3.656,-0.865c2.058,-0.802 3.988,-2.355 5.405,-4.021l0.151,-0.182c0.553,3.176 3.237,4.294 6.253,4.209c3.535,-0.1 6.754,-1.814 9.068,-4.427c-0.295,1.354 -0.589,2.707 -0.882,4.061c1.936,-0.006 3.87,-0.01 5.806,0.015c0.987,-4.6 2.013,-9.192 3.022,-13.787c0.299,-0.251 0.603,-0.499 0.933,-0.708c0.287,-0.181 0.587,-0.352 0.909,-0.458c2.762,-0.907 0.999,2.251 3.453,2.387c0.454,0.025 0.927,-0.022 1.349,-0.19c-1.697,2.913 -3.016,7.738 -1.15,10.893c1.132,1.914 3.449,2.623 5.544,2.771c3.449,0.245 6.911,-1.272 9.343,-3.685c0.062,0.298 0.085,1.508 0.478,2.412c0.616,1.419 2.438,2.571 3.891,2.75c3.835,0.475 7.037,-2.428 8.412,-5.738c-0.567,-0.091 -1.133,-0.179 -1.699,-0.254c-0.247,1.008 -1.018,1.994 -2.078,2.439c-1.406,0.59 -3.149,0.312 -3.183,-1.311c-0.005,-0.251 0.088,-0.922 0.134,-1.124c0.395,-1.731 0.799,-3.46 1.205,-5.189c0.405,-1.728 0.813,-3.455 1.228,-5.181c0.806,0.108 1.612,0.224 2.418,0.336c0.094,-0.459 0.2,-0.921 0.306,-1.378c-0.818,-0.115 -1.624,-0.231 -2.43,-0.346c0.425,-1.814 0.864,-3.626 1.301,-5.433c-1.999,-0.056 -3.985,-0.11 -5.97,-0.163c-0.391,1.59 -0.77,3.186 -1.148,4.79c-0.453,-0.049 -0.893,-0.101 -1.333,-0.149c-0.106,0.467 -0.2,0.934 -0.294,1.401c0.441,0.048 0.881,0.1 1.334,0.149c-0.44,1.847 -1.854,7.99 -2.278,9.84c-2.082,1.973 -4.166,3.046 -7.092,2.987c-0.985,-0.02 -2.145,-0.351 -2.608,-1.355c-0.491,-1.066 -0.328,-2.237 -0.288,-3.35c3.419,0.074 6.603,-1.075 8.446,-3.962c1.714,-3.458 0.41,-6.429 -3.769,-6.752c-2.703,-0.236 -5.327,0.601 -7.214,2.565c0.009,-0.09 0.012,-0.181 0.01,-0.272c-0.037,-2.511 -2.595,-3.258 -4.637,-2.643c-1.038,0.312 -2.196,1.184 -3.039,1.818c0.165,-0.75 0.33,-1.498 0.495,-2.246c-1.936,-0.053 -3.872,-0.108 -5.808,-0.158c-0.863,3.915 -1.727,7.831 -2.579,11.749c-2.009,2.153 -4.062,3.509 -7.064,3.753c-0.951,0.077 -2.127,-0.102 -2.604,-1.099c-1.198,-2.503 0.179,-6.517 1.174,-8.841c0.455,-1.063 1.223,-2.681 2.223,-3.408c2.646,-1.923 2.765,1.518 1.956,3.114c3.253,1.841 4.599,-2.806 2.583,-4.548c-1.774,-1.533 -4.793,-1.148 -6.765,-0.454c-4.413,1.551 -6.763,6.416 -7.341,10.76c-0.078,0.593 -0.131,1.142 -0.143,1.645c-1.86,1.975 -3.814,3.212 -6.563,3.569c-0.908,0.118 -2.109,0.014 -2.59,-0.965c-0.511,-1.04 -0.339,-2.237 -0.301,-3.336m0.3,-1.778c0.292,-1.424 0.781,-3 1.393,-4.323c0.539,-1.166 1.409,-2.87 2.717,-3.433c0.459,-0.197 1.091,-0.27 1.406,0.214c0.577,0.888 0.14,2.439 -0.215,3.298c-0.897,2.173 -2.968,3.888 -5.301,4.244m43.53,-0.226c0.287,-1.336 0.776,-2.835 1.397,-4.058c0.285,-0.561 0.635,-1.089 0.994,-1.606c0.394,-0.565 1.043,-1.155 1.727,-1.339c0.776,-0.208 1.418,0.113 1.585,0.909c0.042,0.201 0.064,0.409 0.058,0.615c-0.057,1.869 -0.981,3.532 -2.559,4.555c-0.957,0.621 -2.062,0.937 -3.202,0.924" style="fill:#422923;fill-rule:nonzero;"/><path id="mark" d="M120.031,24c25.134,0 45.516,20.382 45.516,45.516c0,22.26 -15.989,40.79 -37.105,44.737l-3.134,-17.514c-0.452,-7.087 0.896,-12.207 5.272,-15.654c4.332,-3.412 5.019,-7.148 4.977,-13.469c-0.046,-6.812 -0.422,-15.685 -2.109,-22.555c-0.232,-0.95 -3.978,-5.791 -4.021,-2.103c-0.074,6.371 0.275,12.974 0.08,19.343c-0.111,3.63 -5.973,3.077 -6.044,0.052c-0.113,-4.827 0.054,-9.62 -0.298,-14.388c-0.858,-11.637 -5.41,-11.636 -6.268,0c-0.352,4.768 -0.184,9.561 -0.297,14.388c-0.072,3.025 -5.934,3.578 -6.045,-0.052c-0.194,-6.369 0.156,-12.972 0.081,-19.343c-0.043,-3.688 -3.79,1.153 -4.022,2.103c-1.687,6.87 -2.062,15.743 -2.108,22.555c-0.043,6.321 0.644,10.057 4.976,13.469c4.377,3.447 5.724,8.567 5.273,15.654l-3.135,17.514c-21.116,-3.947 -37.105,-22.477 -37.105,-44.737c0,-25.134 20.382,-45.516 45.516,-45.516Zm22.004,23.641c1.926,-3.939 4.822,-5.941 9.134,-5.111c0.382,2.608 -0.226,4.097 -2.766,4.693c-2.239,0.524 -4.245,1.024 -6.368,0.418Zm11.004,0.506c-1.392,0.593 -1.931,1.442 -2.468,3.489c-0.449,1.708 -0.493,2.836 -0.255,4.255c2.308,0.864 5.513,-6.708 2.723,-7.744Zm-5.928,1.305c-2.885,0.338 -5.868,1.235 -7.147,4.339c-2.16,5.247 -1.613,8.833 -0.794,7.572c0.819,-1.26 2.921,-3.119 4.624,-3.913c4.624,-2.158 7.115,-4.457 3.317,-7.998Zm11.713,6.608c-6.254,-0.568 -9.188,1.945 -9.189,7.913c0,0.683 6.604,0.165 7.147,-1.021c0.894,-1.956 3.655,-6.745 2.042,-6.892Zm-14.719,18.293c2.722,-2.325 4.43,-6.661 8.509,-7.544c3.818,-0.828 4.86,1.265 3.827,5.247c-2.92,3.661 -7.297,3.783 -12.336,2.297Zm-5.218,6.352c0.69,-3.209 8.036,-4.909 7.912,-3.062c-0.027,1.418 -0.724,2.672 -3.999,3.46c-1.22,0.293 -2.722,0 -3.913,-0.398Zm4.251,-19.616c-1.514,0.394 -2.256,1.546 -3.164,3.454c-0.391,2.174 -0.702,4.073 -0.468,5.934c2.505,-0.821 4.593,-2.321 5.58,-4.961c0.051,-1.476 -0.485,-2.951 -1.948,-4.427Zm-1.891,12.238c-0.929,-0.141 -1.49,0.132 -2.443,1.037c-0.794,0.756 -1.187,1.337 -1.525,2.164c0.937,1.211 5.103,-1.742 3.968,-3.201Zm-3.239,-37.428c-2.348,0.782 -2.989,2.703 -1.921,5.761c1.121,1.547 2.241,3.095 3.361,4.642c1.449,-3.468 2.255,-6.935 -1.44,-10.403Zm20.041,29.248c0.929,-0.142 1.49,0.131 2.443,1.037c0.795,0.756 1.187,1.337 1.524,2.163c-0.936,1.211 -5.102,-1.741 -3.967,-3.2Zm-9.757,12.731c0.758,-0.557 1.381,-0.577 2.645,-0.216c1.055,0.3 1.672,0.633 2.355,1.208c-0.267,1.507 -5.328,0.826 -5,-0.992Zm-23.027,-44.426c-0.87,0.749 -1.063,1.486 -0.982,3.09c0.069,1.339 0.295,2.164 0.794,3.135c1.868,0.095 2.444,-6.117 0.188,-6.225Zm10.743,-3.323c-2.014,0.236 -4.097,0.861 -4.989,3.029c-1.508,3.662 -1.126,6.165 -0.554,5.285c0.572,-0.88 2.038,-2.178 3.227,-2.732c3.228,-1.506 4.966,-3.111 2.316,-5.582Zm-10.812,-1.942c0.929,-0.141 1.491,0.132 2.443,1.037c0.795,0.756 1.186,1.336 1.524,2.163c-0.936,1.212 -5.102,-1.741 -3.967,-3.2Zm11.225,18.89c0.929,-0.141 1.49,0.132 2.442,1.037c0.795,0.757 1.187,1.337 1.525,2.164c-0.937,1.211 -5.102,-1.742 -3.967,-3.201Zm10.328,-10.078c-1.487,0.174 -3.026,0.636 -3.686,2.238c-1.115,2.706 -0.832,4.555 -0.41,3.906c0.423,-0.65 1.507,-1.609 2.385,-2.019c2.385,-1.113 3.67,-2.298 1.711,-4.125Zm-48.722,10.642c-1.925,-3.939 -4.821,-5.941 -9.133,-5.111c-0.382,2.608 0.226,4.097 2.766,4.693c2.239,0.524 4.245,1.024 6.367,0.418Zm-11.002,0.506c1.391,0.593 1.929,1.442 2.467,3.489c0.449,1.708 0.493,2.836 0.255,4.255c-2.308,0.864 -5.513,-6.708 -2.722,-7.744Zm5.926,1.305c2.885,0.338 5.869,1.235 7.147,4.339c2.161,5.247 1.614,8.833 0.794,7.572c-0.818,-1.26 -2.92,-3.119 -4.623,-3.913c-4.624,-2.158 -7.115,-4.457 -3.318,-7.998Zm-11.713,6.608c6.255,-0.568 9.189,1.945 9.189,7.913c0,0.683 -6.604,0.165 -7.146,-1.021c-0.895,-1.956 -3.655,-6.745 -2.043,-6.892Zm14.72,18.293c-2.722,-2.325 -4.431,-6.661 -8.508,-7.544c-3.82,-0.828 -4.861,1.265 -3.829,5.247c2.921,3.661 7.297,3.783 12.337,2.297Zm5.218,6.352c-0.69,-3.209 -8.036,-4.909 -7.913,-3.062c0.028,1.418 0.725,2.672 3.999,3.46c1.221,0.293 2.723,0 3.914,-0.398Zm-4.251,-19.616c1.513,0.394 2.256,1.546 3.164,3.454c0.391,2.174 0.702,4.073 0.468,5.934c-2.505,-0.821 -4.593,-2.321 -5.581,-4.961c-0.05,-1.476 0.486,-2.951 1.949,-4.427Zm1.89,12.238c0.93,-0.141 1.491,0.132 2.444,1.037c0.795,0.756 1.186,1.337 1.524,2.164c-0.937,1.211 -5.102,-1.742 -3.968,-3.201Zm3.24,-37.428c2.348,0.782 2.988,2.703 1.92,5.761c-1.12,1.547 -2.239,3.095 -3.36,4.642c-1.449,-3.468 -2.255,-6.935 1.44,-10.403Zm-20.041,29.248c-0.93,-0.142 -1.491,0.131 -2.443,1.037c-0.795,0.756 -1.187,1.337 -1.524,2.163c0.936,1.211 5.102,-1.741 3.967,-3.2Zm9.756,12.731c-0.757,-0.557 -1.38,-0.577 -2.644,-0.216c-1.055,0.3 -1.673,0.633 -2.355,1.208c0.267,1.507 5.328,0.826 4.999,-0.992Zm23.027,-44.426c0.87,0.749 1.065,1.486 0.982,3.09c-0.068,1.339 -0.294,2.164 -0.793,3.135c-1.868,0.095 -2.445,-6.117 -0.189,-6.225Zm-10.742,-3.323c2.013,0.236 4.096,0.861 4.988,3.029c1.509,3.662 1.127,6.165 0.554,5.285c-0.571,-0.88 -2.038,-2.178 -3.226,-2.732c-3.228,-1.506 -4.966,-3.111 -2.316,-5.582Zm10.811,-1.942c-0.928,-0.141 -1.49,0.132 -2.443,1.037c-0.794,0.756 -1.186,1.336 -1.524,2.163c0.937,1.212 5.103,-1.741 3.967,-3.2Zm-11.224,18.89c-0.929,-0.141 -1.49,0.132 -2.443,1.037c-0.794,0.757 -1.187,1.337 -1.525,2.164c0.937,1.211 5.103,-1.742 3.968,-3.201Zm-10.329,-10.078c1.488,0.174 3.027,0.636 3.687,2.238c1.114,2.706 0.832,4.555 0.409,3.906c-0.422,-0.65 -1.506,-1.609 -2.384,-2.019c-2.385,-1.113 -3.67,-2.298 -1.712,-4.125Zm25.811,-9.361c-1.919,0.639 -2.442,2.208 -1.569,4.708c0.915,1.264 1.831,2.528 2.746,3.792c1.185,-2.833 1.843,-5.667 -1.177,-8.5Z" style="fill:#bed132;"/></g></svg>