<?xml version="1.0" encoding="UTF-8" standalone="no"?><!DOCTYPE svg PUBLIC "-//W3C//DTD SVG 1.1//EN" "http://www.w3.org/Graphics/SVG/1.1/DTD/svg11.dtd"><svg width="100%" height="100%" viewBox="0 0 240 240" version="1.1" xmlns="http://www.w3.org/2000/svg" xmlns:xlink="http://www.w3.org/1999/xlink" xml:space="preserve" xmlns:serif="http://www.serif.com/" style="fill-rule:evenodd;clip-rule:evenodd;stroke-linejoin:round;stroke-miterlimit:1.41421;"><rect id="Standard" x="0" y="0" width="240" height="240" style="fill:none;"/><g><g><path d="M67.966,124.612c-2.048,0.326 -3.549,1.312 -4.504,2.957c-0.954,1.646 -1.261,4.319 -0.922,8.019c0.111,1.212 0.303,2.041 0.574,2.487c0.272,0.446 0.411,0.702 0.417,0.767c-1.761,0.224 -3.107,0.022 -4.038,-0.605c-0.932,-0.627 -1.476,-1.792 -1.632,-3.495c-0.213,-2.326 0.163,-4.519 1.128,-6.58c0.966,-2.061 2.642,-3.839 5.028,-5.335c2.386,-1.496 5.503,-2.488 9.351,-2.977c0.783,-0.099 1.833,-0.15 3.153,-0.152c2.368,-0.069 4.042,-0.165 5.02,-0.29c1.728,-0.219 3.177,-0.602 4.348,-1.148c-0.071,0.307 -0.191,0.977 -0.36,2.009c-0.17,1.032 -0.556,1.942 -1.16,2.731c-0.604,0.789 -1.466,1.371 -2.586,1.745c-1.924,0.245 -4.235,0.223 -6.933,-0.063l-1.158,10.037l8.523,-0.607l-0.449,3.735l-8.523,0.606l-2.268,18.975l-7.043,0.895l4.034,-33.711Z" style="fill:#2c3235;fill-rule:nonzero;"/><path d="M88.462,130.917c-0.998,0.131 -1.873,-0.108 -2.623,-0.718c-0.751,-0.609 -1.165,-1.417 -1.244,-2.422c-0.078,-1.005 0.202,-1.911 0.842,-2.718c0.64,-0.807 1.459,-1.276 2.458,-1.407c0.998,-0.131 1.881,0.115 2.647,0.738c0.767,0.622 1.19,1.436 1.269,2.442c0.078,1.005 -0.211,1.904 -0.867,2.698c-0.656,0.794 -1.484,1.256 -2.482,1.387Zm-1.088,25.992c-1.452,0.19 -2.66,-0.113 -3.624,-0.91c-0.964,-0.797 -1.517,-2.109 -1.66,-3.937c-0.059,-0.762 -0.015,-1.767 0.132,-3.018l1.94,-15.071l6.535,-0.856l-2.054,15.963c-0.086,0.473 -0.108,0.968 -0.068,1.486c0.048,0.609 0.225,1.024 0.533,1.246c0.308,0.221 0.794,0.288 1.46,0.201c0.877,-0.115 1.665,-0.595 2.363,-1.441c0.698,-0.845 1.167,-1.884 1.407,-3.115l1.906,-0.25c-0.863,3.436 -2.125,5.856 -3.788,7.259c-1.664,1.402 -3.357,2.217 -5.082,2.443Z" style="fill:#2c3235;fill-rule:nonzero;"/><path d="M99.127,156.674c-1.461,0.098 -2.672,-0.28 -3.631,-1.133c-0.959,-0.853 -1.5,-2.192 -1.623,-4.019c-0.051,-0.761 0.004,-1.759 0.166,-2.993l1.879,-13.016l-1.507,0.102l0.242,-1.852l1.507,-0.101l0.947,-6.393l6.697,-1.367l-1.068,7.319l2.74,-0.184l-0.243,1.851l-2.74,0.184l-2.003,13.896c-0.091,0.465 -0.119,0.956 -0.084,1.473c0.041,0.609 0.214,1.033 0.521,1.273c0.307,0.239 0.795,0.336 1.465,0.291c0.882,-0.059 1.679,-0.487 2.39,-1.284c0.711,-0.797 1.194,-1.8 1.45,-3.01l1.918,-0.129c-0.906,3.363 -2.202,5.691 -3.889,6.981c-1.688,1.291 -3.399,1.994 -5.134,2.111Z" style="fill:#2c3235;fill-rule:nonzero;"/><path d="M103.385,168.826c-1.433,0.063 -2.727,-0.345 -3.883,-1.225c-1.156,-0.88 -1.791,-2.036 -1.905,-3.466c-0.104,-1.309 0.146,-2.404 0.749,-3.286c0.603,-0.882 1.418,-1.598 2.445,-2.147c1.026,-0.55 2.402,-1.138 4.127,-1.764l3.46,-26.313c0.378,-2.949 1.292,-5.021 2.741,-6.215c1.45,-1.195 3.105,-1.833 4.964,-1.916c1.433,-0.063 2.727,0.345 3.883,1.225c1.156,0.88 1.791,2.036 1.904,3.466c0.056,0.7 0.06,1.326 0.012,1.878l-2.149,0.095c0.008,-0.672 0.006,-1.084 -0.007,-1.236c-0.038,-0.487 -0.236,-0.86 -0.593,-1.119c-0.357,-0.259 -0.78,-0.378 -1.267,-0.356c-0.64,0.028 -1.243,0.337 -1.808,0.927c-0.565,0.591 -0.93,1.577 -1.095,2.958l-0.491,3.641l3.338,-0.148l-0.175,1.84l-3.384,0.151l-3.299,24.885c-0.375,2.979 -1.265,5.058 -2.67,6.235c-1.406,1.177 -3.038,1.807 -4.897,1.89Zm-1.375,-4.017c1.219,-0.054 1.994,-1.279 2.323,-3.676l0.384,-2.675c-1.572,0.62 -2.764,1.307 -3.576,2.061c-0.812,0.753 -1.171,1.709 -1.08,2.865c0.029,0.365 0.24,0.7 0.631,1.003c0.391,0.303 0.83,0.444 1.318,0.422Z" style="fill:#2c3235;fill-rule:nonzero;"/><path d="M124.611,156.301c-2.258,0.044 -4.074,-0.501 -5.448,-1.634c-1.375,-1.133 -2.13,-2.95 -2.266,-5.449c-0.112,-2.074 0.19,-4.383 0.907,-6.93c0.717,-2.547 1.971,-4.761 3.763,-6.642c1.791,-1.881 4.12,-2.849 6.988,-2.904c3.905,-0.075 5.989,2.326 6.254,7.204l0.003,0.045c0.093,0.029 0.261,0.041 0.505,0.036c1.007,-0.019 2.152,-0.308 3.435,-0.867c1.282,-0.559 2.437,-1.23 3.463,-2.012l0.479,1.226c-0.833,0.963 -1.941,1.785 -3.324,2.468c-1.383,0.683 -2.906,1.177 -4.569,1.484c-0.094,2.779 -0.588,5.215 -1.482,7.307c-0.894,2.093 -2.104,3.718 -3.629,4.877c-1.525,1.158 -3.218,1.756 -5.079,1.791Zm1.607,-4.15c0.732,-0.015 1.442,-0.448 2.128,-1.3c0.687,-0.853 1.266,-2.008 1.736,-3.467c0.471,-1.459 0.78,-3.075 0.928,-4.847c-0.833,-0.167 -1.28,-0.8 -1.34,-1.897c-0.067,-1.25 0.361,-2.082 1.285,-2.497c-0.116,-1.005 -0.306,-1.695 -0.57,-2.072c-0.265,-0.376 -0.703,-0.558 -1.313,-0.547c-1.006,0.02 -1.943,0.77 -2.809,2.252c-0.867,1.481 -1.534,3.249 -2.003,5.303c-0.469,2.054 -0.661,3.858 -0.577,5.413c0.08,1.463 0.301,2.443 0.664,2.939c0.363,0.497 0.986,0.737 1.871,0.72Z" style="fill:#2c3235;fill-rule:nonzero;"/><path d="M143.759,156.625c-2.257,0.014 -4.046,-0.555 -5.365,-1.706c-1.32,-1.151 -1.987,-2.978 -2.003,-5.48c-0.013,-2.074 0.4,-4.381 1.238,-6.918c0.839,-2.538 2.198,-4.736 4.078,-6.594c1.88,-1.858 4.254,-2.796 7.122,-2.814c3.906,-0.024 5.874,2.404 5.904,7.286l0.001,0.046c0.091,0.03 0.259,0.044 0.503,0.043c1.007,-0.007 2.165,-0.281 3.474,-0.823c1.308,-0.542 2.494,-1.198 3.557,-1.968l0.42,1.233c-0.879,0.952 -2.026,1.76 -3.44,2.425c-1.415,0.665 -2.961,1.14 -4.637,1.425c-0.227,2.778 -0.837,5.208 -1.831,7.289c-0.993,2.081 -2.28,3.691 -3.86,4.83c-1.579,1.139 -3.299,1.714 -5.161,1.726Zm1.805,-4.131c0.732,-0.005 1.462,-0.429 2.189,-1.272c0.727,-0.844 1.361,-1.992 1.901,-3.445c0.54,-1.453 0.926,-3.065 1.159,-4.836c-0.825,-0.178 -1.241,-0.816 -1.248,-1.914c-0.007,-1.251 0.46,-2.078 1.404,-2.481c-0.068,-1.006 -0.225,-1.699 -0.471,-2.079c-0.247,-0.38 -0.675,-0.568 -1.285,-0.564c-1.007,0.006 -1.979,0.745 -2.915,2.215c-0.937,1.471 -1.689,3.23 -2.256,5.278c-0.567,2.048 -0.845,3.85 -0.835,5.406c0.009,1.464 0.183,2.447 0.522,2.948c0.339,0.502 0.95,0.75 1.835,0.744Z" style="fill:#2c3235;fill-rule:nonzero;"/><path d="M162.939,157.541c-1.738,-0.069 -3.194,-0.722 -4.367,-1.96c-1.174,-1.237 -1.777,-3.124 -1.809,-5.659c-0.029,-2.261 0.39,-4.619 1.258,-7.073c0.868,-2.454 2.182,-4.509 3.944,-6.165c1.761,-1.655 3.877,-2.434 6.346,-2.336c1.25,0.05 2.183,0.3 2.798,0.752c0.615,0.452 0.927,1.029 0.936,1.732l0.003,0.183l2.106,-10.451l6.757,-0.648l-4.944,24.538c-0.116,0.453 -0.171,0.894 -0.166,1.322c0.016,1.222 0.649,1.857 1.899,1.907c0.548,0.022 1.035,-0.051 1.459,-0.217c-0.102,1.523 -0.628,2.67 -1.578,3.441c-0.95,0.772 -2.081,1.132 -3.392,1.08c-1.219,-0.049 -2.252,-0.402 -3.099,-1.062c-0.846,-0.66 -1.415,-1.636 -1.706,-2.93c-1.796,2.463 -3.945,3.645 -6.445,3.546Zm2.916,-4.327c0.671,0.026 1.345,-0.237 2.024,-0.791c0.678,-0.553 1.179,-1.342 1.501,-2.368l0.174,-0.726l2.107,-10.405c-0.288,-1.08 -0.92,-1.64 -1.896,-1.678c-1.219,-0.049 -2.308,0.618 -3.265,2c-0.958,1.382 -1.698,3.063 -2.222,5.042c-0.523,1.979 -0.775,3.733 -0.755,5.26c0.019,1.528 0.253,2.514 0.7,2.96c0.448,0.445 0.992,0.68 1.632,0.706Z" style="fill:#2c3235;fill-rule:nonzero;"/></g><path id="mark" d="M120.001,24c25.205,0 45.645,20.44 45.645,45.645c0,22.323 -16.035,40.906 -37.211,44.864l-3.142,-17.564c-0.454,-7.107 0.898,-12.241 5.286,-15.698c4.345,-3.422 5.034,-7.168 4.992,-13.507c-0.047,-6.832 -0.424,-15.73 -2.115,-22.619c-0.233,-0.953 -3.99,-5.808 -4.033,-2.109c-0.074,6.389 0.276,13.01 0.08,19.398c-0.111,3.64 -5.99,3.085 -6.061,0.052c-0.113,-4.841 0.054,-9.648 -0.299,-14.429c-0.86,-11.67 -5.425,-11.669 -6.285,0c-0.353,4.781 -0.185,9.588 -0.298,14.429c-0.072,3.033 -5.951,3.588 -6.062,-0.052c-0.195,-6.388 0.156,-13.009 0.081,-19.398c-0.043,-3.699 -3.801,1.156 -4.033,2.109c-1.692,6.889 -2.068,15.787 -2.114,22.619c-0.044,6.339 0.645,10.085 4.99,13.507c4.389,3.457 5.74,8.591 5.288,15.698l-3.144,17.564c-21.176,-3.958 -37.21,-22.541 -37.21,-44.864c0,-25.205 20.439,-45.645 45.645,-45.645Zm22.066,23.708c1.931,-3.95 4.836,-5.958 9.16,-5.125c0.383,2.615 -0.227,4.108 -2.774,4.706c-2.245,0.525 -4.257,1.027 -6.386,0.419Zm11.035,0.507c-1.396,0.595 -1.936,1.447 -2.475,3.499c-0.45,1.713 -0.494,2.844 -0.256,4.267c2.315,0.867 5.529,-6.727 2.731,-7.766Zm-5.945,1.309c-2.893,0.339 -5.884,1.239 -7.167,4.351c-2.166,5.262 -1.618,8.858 -0.796,7.594c0.821,-1.264 2.929,-3.128 4.637,-3.924c4.637,-2.164 7.135,-4.47 3.326,-8.021Zm11.746,6.627c-6.271,-0.57 -9.214,1.95 -9.215,7.935c0,0.685 6.623,0.166 7.168,-1.024c0.896,-1.961 3.665,-6.764 2.047,-6.911Zm-14.76,18.345c2.73,-2.332 4.442,-6.68 8.533,-7.566c3.829,-0.83 4.874,1.269 3.838,5.262c-2.929,3.672 -7.318,3.794 -12.371,2.304Zm-5.233,6.37c0.692,-3.218 8.059,-4.923 7.934,-3.071c-0.027,1.422 -0.726,2.68 -4.01,3.47c-1.223,0.294 -2.73,0 -3.924,-0.399Zm4.263,-19.672c-1.518,0.395 -2.262,1.55 -3.173,3.464c-0.392,2.18 -0.704,4.084 -0.469,5.951c2.512,-0.824 4.606,-2.328 5.596,-4.975c0.051,-1.481 -0.487,-2.96 -1.954,-4.44Zm-1.896,12.273c-0.932,-0.142 -1.495,0.132 -2.45,1.04c-0.796,0.758 -1.191,1.341 -1.53,2.17c0.94,1.214 5.118,-1.747 3.98,-3.21Zm-3.248,-37.534c-2.355,0.784 -2.998,2.71 -1.927,5.777c1.124,1.551 2.247,3.104 3.371,4.655c1.453,-3.478 2.261,-6.954 -1.444,-10.432Zm20.097,29.331c0.932,-0.143 1.495,0.131 2.45,1.04c0.797,0.758 1.191,1.34 1.529,2.169c-0.939,1.214 -5.117,-1.746 -3.979,-3.209Zm-9.784,12.767c0.76,-0.559 1.385,-0.579 2.652,-0.217c1.058,0.301 1.677,0.635 2.362,1.211c-0.268,1.512 -5.343,0.829 -5.014,-0.994Zm-23.093,-44.552c-0.872,0.751 -1.066,1.49 -0.984,3.099c0.069,1.342 0.295,2.17 0.796,3.143c1.873,0.096 2.451,-6.134 0.188,-6.242Zm10.774,-3.333c-2.02,0.237 -4.109,0.864 -5.003,3.038c-1.513,3.672 -1.129,6.182 -0.556,5.3c0.574,-0.883 2.044,-2.184 3.236,-2.74c3.237,-1.51 4.98,-3.12 2.323,-5.598Zm-10.843,-1.947c0.932,-0.142 1.495,0.132 2.45,1.04c0.797,0.758 1.189,1.34 1.528,2.169c-0.938,1.215 -5.116,-1.746 -3.978,-3.209Zm11.257,18.943c0.932,-0.141 1.494,0.133 2.449,1.04c0.797,0.759 1.19,1.341 1.529,2.17c-0.939,1.215 -5.116,-1.746 -3.978,-3.21Zm10.357,-10.106c-1.491,0.174 -3.034,0.638 -3.696,2.244c-1.118,2.714 -0.835,4.568 -0.411,3.917c0.424,-0.652 1.511,-1.613 2.391,-2.024c2.392,-1.117 3.681,-2.305 1.716,-4.137Zm-48.86,10.672c-1.93,-3.95 -4.834,-5.958 -9.159,-5.125c-0.383,2.615 0.227,4.108 2.774,4.706c2.246,0.525 4.257,1.027 6.385,0.419Zm-11.033,0.507c1.395,0.595 1.934,1.447 2.474,3.499c0.45,1.713 0.494,2.844 0.256,4.267c-2.315,0.867 -5.529,-6.727 -2.73,-7.766Zm5.943,1.309c2.893,0.339 5.885,1.239 7.167,4.351c2.167,5.262 1.619,8.858 0.796,7.594c-0.82,-1.264 -2.928,-3.128 -4.636,-3.924c-4.637,-2.164 -7.135,-4.47 -3.327,-8.021Zm-11.746,6.627c6.272,-0.57 9.215,1.95 9.215,7.935c0,0.685 -6.623,0.166 -7.167,-1.024c-0.897,-1.961 -3.665,-6.764 -2.048,-6.911Zm14.761,18.345c-2.729,-2.332 -4.443,-6.68 -8.532,-7.566c-3.831,-0.83 -4.875,1.269 -3.84,5.262c2.93,3.672 7.318,3.794 12.372,2.304Zm5.233,6.37c-0.692,-3.218 -8.059,-4.923 -7.935,-3.071c0.028,1.422 0.727,2.68 4.01,3.47c1.225,0.294 2.731,0 3.925,-0.399Zm-4.263,-19.672c1.517,0.395 2.262,1.55 3.173,3.464c0.392,2.18 0.704,4.084 0.469,5.951c-2.512,-0.824 -4.606,-2.328 -5.596,-4.975c-0.051,-1.481 0.487,-2.96 1.954,-4.44Zm1.895,12.273c0.933,-0.142 1.496,0.132 2.451,1.04c0.798,0.758 1.19,1.341 1.529,2.17c-0.94,1.214 -5.117,-1.747 -3.98,-3.21Zm3.25,-37.534c2.354,0.784 2.996,2.71 1.925,5.777c-1.123,1.551 -2.245,3.104 -3.369,4.655c-1.454,-3.478 -2.262,-6.954 1.444,-10.432Zm-20.098,29.331c-0.933,-0.143 -1.495,0.131 -2.45,1.04c-0.797,0.758 -1.19,1.34 -1.528,2.169c0.938,1.214 5.116,-1.746 3.978,-3.209Zm9.783,12.767c-0.759,-0.559 -1.383,-0.579 -2.651,-0.217c-1.058,0.301 -1.678,0.635 -2.362,1.211c0.268,1.512 5.343,0.829 5.013,-0.994Zm23.093,-44.552c0.872,0.751 1.068,1.49 0.985,3.099c-0.069,1.342 -0.295,2.17 -0.796,3.143c-1.873,0.096 -2.452,-6.134 -0.189,-6.242Zm-10.773,-3.333c2.019,0.237 4.108,0.864 5.002,3.038c1.514,3.672 1.131,6.182 0.556,5.3c-0.573,-0.883 -2.044,-2.184 -3.235,-2.74c-3.237,-1.51 -4.98,-3.12 -2.323,-5.598Zm10.842,-1.947c-0.931,-0.142 -1.494,0.132 -2.45,1.04c-0.796,0.758 -1.189,1.34 -1.528,2.169c0.939,1.215 5.117,-1.746 3.978,-3.209Zm-11.256,18.943c-0.932,-0.141 -1.494,0.133 -2.45,1.04c-0.796,0.759 -1.19,1.341 -1.529,2.17c0.94,1.215 5.117,-1.746 3.979,-3.21Zm-10.358,-10.106c1.492,0.174 3.035,0.638 3.697,2.244c1.117,2.714 0.835,4.568 0.41,3.917c-0.423,-0.652 -1.51,-1.613 -2.39,-2.024c-2.392,-1.117 -3.681,-2.305 -1.717,-4.137Zm25.884,-9.388c-1.924,0.641 -2.449,2.215 -1.573,4.722c0.917,1.267 1.836,2.535 2.753,3.802c1.189,-2.841 1.849,-5.683 -1.18,-8.524Z" style="fill:#009edf;"/></g></svg>