<?xml version="1.0" encoding="UTF-8" standalone="no"?><!DOCTYPE svg PUBLIC "-//W3C//DTD SVG 1.1//EN" "http://www.w3.org/Graphics/SVG/1.1/DTD/svg11.dtd"><svg width="100%" height="100%" viewBox="0 0 240 240" version="1.1" xmlns="http://www.w3.org/2000/svg" xmlns:xlink="http://www.w3.org/1999/xlink" xml:space="preserve" xmlns:serif="http://www.serif.com/" style="fill-rule:evenodd;clip-rule:evenodd;stroke-linejoin:round;stroke-miterlimit:1.41421;"><rect id="Standard" x="0" y="0" width="240" height="240" style="fill:none;"/><g id="Standard1" serif:id="Standard"><g id="DO"><path id="name" d="M73.427,168.339l1.902,-13.714l6.12,-1.786l-1.437,10.374c0.75,-0.62 1.37,-1.048 1.861,-1.285c0.491,-0.236 0.987,-0.391 1.487,-0.463c3.28,-0.472 5.062,1.846 5.348,6.956c0.116,2.062 -0.129,4.319 -0.735,6.771c-0.605,2.452 -1.715,4.638 -3.331,6.558c-1.615,1.919 -3.785,3.076 -6.509,3.468c-1.889,0.273 -3.363,-0.02 -4.419,-0.876c-1.057,-0.857 -1.636,-2.197 -1.738,-4.02c-0.05,-0.897 0,-1.762 0.149,-2.597l0.988,-7.119c-0.084,0.066 -0.17,0.131 -0.256,0.195c-1.208,0.899 -2.553,1.635 -4.036,2.21c0.086,2.751 -0.211,5.229 -0.89,7.436c-0.68,2.206 -1.673,4.004 -2.979,5.395c-1.307,1.39 -2.799,2.255 -4.478,2.595c-2.037,0.413 -3.71,0.174 -5.022,-0.716c-1.311,-0.891 -2.104,-2.555 -2.38,-4.994c-0.229,-2.022 -0.098,-4.346 0.394,-6.97c0.491,-2.625 1.488,-5.009 2.991,-7.154c1.502,-2.145 3.547,-3.48 6.134,-4.004c3.522,-0.714 5.553,1.308 6.091,6.067l0.005,0.044c0.086,0.013 0.239,-0.002 0.459,-0.047c0.908,-0.184 1.925,-0.656 3.049,-1.416c0.429,-0.29 0.839,-0.593 1.232,-0.908Zm49.769,5.496c0.105,-2.05 0.565,-4.182 1.379,-6.394c0.882,-2.397 2.163,-4.405 3.842,-6.024c1.679,-1.619 3.655,-2.383 5.927,-2.292c1.15,0.046 2.001,0.288 2.553,0.728c0.552,0.44 0.82,1.003 0.805,1.688l-0.004,0.179l2.292,-10.203l6.249,-0.646l-5.381,23.955c-0.122,0.443 -0.189,0.918 -0.2,1.425c-0.013,0.596 0.11,1.026 0.371,1.29c0.261,0.264 0.7,0.409 1.317,0.433c0.786,0.032 1.474,-0.299 2.066,-0.992c0.583,-0.683 1.055,-1.603 1.417,-2.759c0.281,-1.704 0.821,-3.518 1.618,-5.444c0.99,-2.392 2.423,-4.404 4.3,-6.037c1.876,-1.633 4.128,-2.324 6.755,-2.073c3.075,0.293 4.477,1.864 4.205,4.714c-0.159,1.662 -0.752,3.148 -1.78,4.457c-1.027,1.31 -2.322,2.317 -3.884,3.022c-1.563,0.704 -3.188,1.036 -4.876,0.995c-0.141,0.885 -0.226,1.476 -0.254,1.772c-0.139,1.455 0.004,2.464 0.43,3.029c0.426,0.565 1.17,0.898 2.232,0.999c1.509,0.144 2.837,-0.103 3.984,-0.743c1.02,-0.568 2.152,-1.433 3.395,-2.596l4.595,-18.691c0.072,0.09 0.148,0.177 0.227,0.261c1.44,1.53 3.484,2.061 5.471,1.846l-2.37,9.65l8.301,-5.522l4.115,0.677l-8.569,4.89c0.42,-0.052 0.88,-0.037 1.379,0.045c1.496,0.247 2.612,0.929 3.347,2.047c0.735,1.118 1.071,2.443 1.008,3.974c-0.026,0.63 -0.105,1.191 -0.236,1.683l-0.55,2.176c-0.16,0.517 -0.249,0.986 -0.267,1.406c-0.045,1.111 0.472,1.755 1.553,1.933c0.609,0.1 0.999,0.119 1.169,0.057c0.17,-0.063 0.269,-0.092 0.296,-0.088c-0.096,0.982 -0.386,1.78 -0.872,2.395c-0.485,0.615 -1.033,1.054 -1.644,1.316c-0.61,0.262 -1.123,0.359 -1.539,0.29c-1.718,-0.283 -3.002,-0.94 -3.852,-1.971c-0.85,-1.031 -1.241,-2.373 -1.174,-4.023c0.03,-0.721 0.145,-1.487 0.346,-2.3l0.404,-1.702c0.132,-0.492 0.21,-1.038 0.235,-1.638c0.059,-1.441 -0.41,-2.243 -1.408,-2.407c-0.443,-0.073 -0.913,-0.015 -1.408,0.176c-0.496,0.19 -1.075,0.518 -1.735,0.983l-2.618,10.765l-5.984,-0.986l1.082,-4.401c-2.958,2.991 -6.198,4.318 -9.722,3.982c-2.068,-0.197 -3.621,-0.922 -4.658,-2.174c-0.599,-0.724 -0.986,-1.645 -1.162,-2.764c-1.726,2.584 -3.974,3.82 -6.741,3.71c-1.151,-0.046 -2.076,-0.411 -2.777,-1.096c-0.701,-0.684 -1.121,-1.656 -1.262,-2.915c-0.756,1.164 -1.655,2.113 -2.696,2.847c-1.041,0.734 -2.25,1.074 -3.624,1.019c-1.6,-0.064 -2.919,-0.698 -3.959,-1.903c-0.549,-0.636 -0.945,-1.448 -1.189,-2.437c-0.605,1.107 -1.28,1.959 -2.023,2.555c-1.493,1.197 -3.011,1.82 -4.554,1.87c-1.179,0.038 -2.138,-0.281 -2.876,-0.959c-0.738,-0.677 -1.199,-1.684 -1.383,-3.02c-0.774,1.248 -1.647,2.268 -2.619,3.06c-0.972,0.792 -2.145,1.211 -3.52,1.255c-1.6,0.052 -2.952,-0.486 -4.056,-1.614c-0.545,-0.557 -0.966,-1.279 -1.261,-2.165c-0.597,1.116 -1.278,1.99 -2.042,2.622c-1.561,1.29 -3.138,2.006 -4.733,2.147c-1.342,0.119 -2.45,-0.231 -3.323,-1.052c-0.873,-0.821 -1.357,-2.125 -1.453,-3.912c-0.039,-0.745 0.021,-1.723 0.181,-2.935l2.085,-14.597l6.042,-0.535l-2.208,15.461c-0.088,0.457 -0.119,0.938 -0.092,1.445c0.032,0.596 0.188,1.008 0.467,1.238c0.279,0.23 0.727,0.317 1.342,0.263c0.811,-0.072 1.547,-0.504 2.207,-1.296c0.429,-0.514 0.771,-1.113 1.024,-1.796c-0.004,-0.095 -0.008,-0.192 -0.011,-0.29c-0.072,-2.205 0.267,-4.535 1.017,-6.991c0.749,-2.455 1.918,-4.551 3.505,-6.288c1.587,-1.737 3.518,-2.642 5.791,-2.715c1.151,-0.038 2.013,0.143 2.588,0.542c0.575,0.399 0.873,0.942 0.895,1.627l0.01,0.313l0.387,-2.384l6.062,-0.196l-2.54,15.296c-0.098,0.451 -0.139,0.929 -0.122,1.436c0.041,1.281 0.637,1.904 1.788,1.866c0.786,-0.025 1.454,-0.434 2.004,-1.228c0.481,-0.693 0.865,-1.565 1.151,-2.616Zm-61.525,10.253c0.66,-0.134 1.275,-0.677 1.842,-1.628c0.568,-0.952 1.02,-2.184 1.356,-3.697c0.335,-1.514 0.516,-3.155 0.541,-4.924c-0.764,-0.028 -1.206,-0.577 -1.327,-1.648c-0.138,-1.219 0.198,-2.109 1.007,-2.668c-0.166,-0.971 -0.38,-1.619 -0.642,-1.946c-0.262,-0.328 -0.669,-0.435 -1.219,-0.324c-0.908,0.184 -1.708,1.076 -2.4,2.677c-0.691,1.6 -1.186,3.45 -1.483,5.548c-0.298,2.099 -0.361,3.906 -0.189,5.423c0.161,1.427 0.421,2.356 0.779,2.785c0.359,0.43 0.937,0.564 1.735,0.402Zm18.554,-3.554c0.861,-0.124 1.635,-0.816 2.321,-2.074c0.686,-1.259 1.203,-2.78 1.552,-4.562c0.348,-1.782 0.478,-3.465 0.39,-5.049c-0.067,-1.196 -0.318,-2.184 -0.754,-2.964c-0.436,-0.781 -1.002,-1.121 -1.696,-1.021c-0.417,0.06 -0.879,0.194 -1.386,0.403c-0.506,0.209 -0.849,0.461 -1.029,0.758l-1.656,11.716c-0.063,0.371 -0.085,0.721 -0.067,1.049c0.077,1.375 0.852,1.956 2.325,1.744Zm28.862,-2.769c0.702,-0.023 1.385,-0.396 2.05,-1.118c0.665,-0.723 1.104,-1.699 1.317,-2.929l1.694,-10.167c-0.012,-0.388 -0.165,-0.763 -0.458,-1.127c-0.292,-0.363 -0.733,-0.535 -1.323,-0.516c-1.122,0.036 -2.11,0.762 -2.963,2.176c-0.854,1.415 -1.501,3.106 -1.943,5.075c-0.443,1.968 -0.64,3.697 -0.591,5.187c0.048,1.49 0.282,2.437 0.702,2.841c0.421,0.404 0.926,0.597 1.515,0.578Zm22.359,-0.225c0.674,0.026 1.361,-0.274 2.063,-0.903c0.703,-0.628 1.193,-1.519 1.471,-2.672l0.005,-0.223l2.292,-10.159c-0.229,-1.053 -0.793,-1.598 -1.69,-1.634c-1.123,-0.044 -2.148,0.609 -3.077,1.959c-0.929,1.351 -1.668,2.992 -2.217,4.925c-0.548,1.932 -0.839,3.644 -0.873,5.135c-0.033,1.49 0.149,2.452 0.546,2.886c0.398,0.434 0.891,0.662 1.48,0.686Zm21.26,-5.788c1.04,0.039 2.062,-0.253 3.066,-0.876c1.005,-0.623 1.846,-1.456 2.524,-2.5c0.678,-1.043 1.075,-2.173 1.191,-3.39c0.116,-1.217 -0.176,-1.859 -0.874,-1.926c-1.007,-0.096 -2.081,0.745 -3.224,2.523c-1.143,1.778 -2.037,3.834 -2.683,6.169Zm18.201,-13.174c-1.203,-0.069 -2.237,-0.521 -3.101,-1.354c-0.863,-0.833 -1.261,-1.851 -1.191,-3.054c0.064,-1.127 0.399,-2.032 1.004,-2.717c0.604,-0.684 1.366,-1.205 2.286,-1.563c0.919,-0.358 2.148,-0.724 3.685,-1.098l0.481,-1.668c-1.391,1.41 -2.996,2.062 -4.813,1.958c-1.229,-0.071 -2.199,-0.512 -2.91,-1.324c-0.711,-0.811 -1.022,-1.985 -0.934,-3.521c0.037,-0.64 0.187,-1.466 0.451,-2.478l3.321,-12.177l5.53,0.318l-3.517,12.898c-0.094,0.303 -0.151,0.62 -0.17,0.953c-0.065,1.127 0.287,1.712 1.055,1.756c0.716,0.041 1.348,-0.224 1.895,-0.796c0.547,-0.572 1.004,-1.374 1.371,-2.406l3.322,-12.177l5.568,0.321l-5.968,22.003c-0.653,2.428 -1.654,4.079 -3.001,4.952c-1.348,0.872 -2.802,1.264 -4.364,1.174Zm-74.994,-0.676c-0.923,0.082 -1.724,-0.192 -2.404,-0.82c-0.68,-0.628 -1.046,-1.434 -1.099,-2.417c-0.052,-0.983 0.224,-1.853 0.83,-2.61c0.606,-0.757 1.37,-1.177 2.293,-1.258c0.923,-0.082 1.732,0.198 2.427,0.84c0.695,0.642 1.068,1.454 1.121,2.437c0.053,0.983 -0.231,1.847 -0.852,2.59c-0.621,0.744 -1.393,1.156 -2.316,1.238Zm74.308,-2.793c0.46,0.027 0.909,-0.185 1.346,-0.635c0.437,-0.45 0.801,-1.193 1.092,-2.23l0.591,-2.239c-1.383,0.383 -2.464,0.86 -3.242,1.432c-0.777,0.571 -1.194,1.344 -1.25,2.317c-0.018,0.307 0.119,0.604 0.411,0.89c0.291,0.287 0.642,0.442 1.052,0.465Zm-102.488,-1.753c-1.525,0.206 -3.071,-0.271 -4.64,-1.43l-0.313,1.595l-5.489,0.742l5.313,-25.405l5.646,-1.54l-4.688,22.41c0.709,0.421 1.432,0.582 2.168,0.483c1.449,-0.196 2.73,-1.224 3.845,-3.082c1.114,-1.859 1.983,-4.15 2.607,-6.874c0.624,-2.723 0.942,-5.432 0.956,-8.125c0.014,-2.538 -0.466,-4.33 -1.438,-5.376c-0.972,-1.045 -2.335,-1.45 -4.089,-1.213c-1.905,0.258 -3.616,0.871 -5.132,1.839c-1.516,0.969 -2.71,2.223 -3.582,3.765c-0.871,1.541 -1.312,3.269 -1.322,5.186c-0.005,0.958 0.081,1.612 0.257,1.964c0.175,0.351 0.263,0.553 0.263,0.605c-1.321,0.178 -2.33,0.03 -3.026,-0.445c-0.696,-0.475 -1.04,-1.347 -1.034,-2.616c0.009,-1.761 0.666,-3.519 1.97,-5.274c1.305,-1.755 3.046,-3.258 5.223,-4.51c2.178,-1.252 4.525,-2.048 7.041,-2.388c3.481,-0.471 6.042,0.231 7.683,2.105c1.641,1.874 2.453,4.443 2.436,7.705c-0.015,2.952 -0.52,5.925 -1.513,8.919c-0.993,2.994 -2.308,5.507 -3.944,7.54c-1.636,2.032 -3.368,3.172 -5.198,3.42Zm75.76,-19.556l1.157,-4.919l5.538,0.124l-3.06,13.013c-0.084,0.306 -0.13,0.626 -0.137,0.959c-0.025,1.128 0.347,1.701 1.116,1.718c0.718,0.016 1.34,-0.272 1.866,-0.863c0.526,-0.591 0.955,-1.409 1.286,-2.453l2.89,-12.286l5.538,0.124l-3.061,13.013c-0.142,0.638 -0.217,1.098 -0.223,1.38c-0.019,0.846 0.408,1.279 1.279,1.298c1.18,0.027 2.292,-0.693 3.338,-2.157c1.046,-1.464 1.899,-3.215 2.56,-5.252c0.661,-2.038 1.008,-3.8 1.042,-5.287c-0.055,0.127 -0.223,0.22 -0.507,0.278c-0.283,0.057 -0.527,0.084 -0.733,0.079c-0.435,-0.009 -0.771,-0.222 -1.005,-0.638c-0.234,-0.415 -0.346,-0.867 -0.335,-1.354c0.013,-0.615 0.223,-1.11 0.629,-1.486c0.406,-0.376 1.007,-0.555 1.801,-0.537c0.846,0.019 1.455,0.347 1.825,0.983c0.371,0.637 0.545,1.442 0.523,2.417c-0.051,2.307 -0.503,4.766 -1.357,7.376c-0.853,2.61 -2.121,4.82 -3.803,6.629c-1.682,1.809 -3.74,2.687 -6.176,2.632c-1.256,-0.028 -2.276,-0.32 -3.058,-0.876c-0.783,-0.556 -1.278,-1.375 -1.485,-2.457c-1.483,2.122 -3.328,3.158 -5.532,3.109c-1.231,-0.028 -2.216,-0.435 -2.955,-1.221c-0.739,-0.786 -1.092,-1.948 -1.057,-3.486c0.014,-0.641 0.135,-1.472 0.363,-2.493l1.306,-5.551c-1.137,0.518 -2.374,0.893 -3.71,1.125c-0.183,2.335 -0.69,4.378 -1.52,6.13c-0.83,1.752 -1.907,3.108 -3.231,4.069c-1.325,0.962 -2.769,1.45 -4.334,1.464c-1.897,0.018 -3.402,-0.455 -4.514,-1.419c-0.575,-0.499 -1.004,-1.151 -1.287,-1.955c-0.475,0.893 -0.993,1.581 -1.555,2.065c-1.192,1.025 -2.454,1.573 -3.785,1.643c-1.562,0.081 -2.73,-0.275 -3.504,-1.069c-0.773,-0.794 -1.192,-1.806 -1.256,-3.035c-0.028,-0.538 0.004,-1.149 0.096,-1.834c0.093,-0.686 0.193,-1.352 0.3,-2c0.107,-0.647 0.182,-1.062 0.224,-1.244c0.158,-0.907 0.304,-1.801 0.437,-2.681c0.134,-0.88 0.187,-1.589 0.158,-2.127c-0.068,-1.306 -0.563,-1.934 -1.485,-1.886c-0.666,0.035 -1.238,0.392 -1.716,1.072c-0.478,0.68 -0.843,1.553 -1.095,2.619l-1.967,12.467l-5.531,0.29l2.11,-13.4c0.061,-0.311 0.083,-0.633 0.065,-0.966c-0.059,-1.127 -0.472,-1.67 -1.241,-1.63c-0.717,0.038 -1.321,0.397 -1.811,1.077c-0.491,0.681 -0.862,1.567 -1.113,2.658l-1.967,12.468l-5.531,0.289l1.978,-12.524c-1.086,0.601 -2.28,1.069 -3.583,1.405c0.005,2.342 -0.336,4.42 -1.023,6.232c-0.686,1.813 -1.651,3.251 -2.894,4.316c-1.243,1.064 -2.644,1.667 -4.202,1.807c-1.89,0.17 -3.427,-0.181 -4.613,-1.052c-1.186,-0.872 -1.873,-2.355 -2.061,-4.449c-0.156,-1.737 0.028,-3.698 0.552,-5.882c0.524,-2.184 1.509,-4.12 2.953,-5.808c1.445,-1.687 3.367,-2.639 5.768,-2.855c3.269,-0.295 5.088,1.602 5.456,5.688l0.003,0.038c0.079,0.019 0.221,0.019 0.425,0.001c0.843,-0.076 1.793,-0.387 2.851,-0.933c0.225,-0.116 0.445,-0.236 0.66,-0.359l0.796,-5.044l5.532,-0.29l-0.318,2.02c1.229,-1.528 2.753,-2.34 4.571,-2.435c2.254,-0.118 3.63,0.914 4.13,3.096c1.294,-2.25 3.017,-3.432 5.168,-3.545c1.306,-0.068 2.362,0.236 3.168,0.913c0.806,0.677 1.247,1.745 1.323,3.205c0.039,0.743 -0.007,1.573 -0.139,2.492c-0.131,0.918 -0.33,2.039 -0.594,3.363c-0.163,0.804 -0.308,1.589 -0.435,2.353c-0.127,0.764 -0.179,1.364 -0.157,1.799c0.027,0.512 0.163,0.903 0.409,1.173c0.245,0.269 0.649,0.389 1.212,0.36c0.769,-0.04 1.369,-0.348 1.801,-0.923c0.351,-0.467 0.692,-1.133 1.023,-1.999c0.037,-1.635 0.377,-3.436 1.02,-5.402c0.698,-2.135 1.835,-3.986 3.41,-5.552c1.575,-1.567 3.568,-2.361 5.978,-2.384c3.283,-0.03 4.943,2.006 4.981,6.108l0.001,0.039c0.077,0.025 0.218,0.036 0.423,0.034c0.846,-0.008 1.819,-0.241 2.917,-0.7c0.238,-0.1 0.472,-0.204 0.7,-0.312Zm-57.691,13.656c0.612,-0.055 1.194,-0.461 1.744,-1.219c0.549,-0.757 1,-1.763 1.35,-3.018c0.351,-1.254 0.561,-2.632 0.632,-4.131c-0.703,-0.092 -1.096,-0.597 -1.179,-1.516c-0.094,-1.047 0.24,-1.773 1.002,-2.176c-0.127,-0.838 -0.307,-1.408 -0.54,-1.709c-0.233,-0.3 -0.605,-0.428 -1.116,-0.382c-0.843,0.076 -1.605,0.762 -2.286,2.06c-0.682,1.297 -1.188,2.823 -1.519,4.578c-0.332,1.755 -0.439,3.283 -0.322,4.586c0.111,1.226 0.325,2.037 0.644,2.433c0.319,0.396 0.849,0.561 1.59,0.494Zm45.976,-2.528c0.615,-0.006 1.227,-0.364 1.836,-1.075c0.609,-0.711 1.138,-1.677 1.588,-2.9c0.451,-1.222 0.771,-2.578 0.962,-4.067c-0.693,-0.147 -1.045,-0.683 -1.053,-1.606c-0.01,-1.051 0.381,-1.747 1.173,-2.088c-0.06,-0.846 -0.193,-1.428 -0.401,-1.747c-0.209,-0.318 -0.569,-0.475 -1.082,-0.47c-0.846,0.008 -1.661,0.631 -2.444,1.869c-0.784,1.238 -1.411,2.719 -1.882,4.441c-0.471,1.723 -0.701,3.238 -0.688,4.546c0.011,1.231 0.16,2.056 0.446,2.477c0.286,0.42 0.801,0.627 1.545,0.62Z" style="fill:#42292b;fill-rule:nonzero;"/><path id="mark" d="M120.031,24c25.134,0 45.516,20.382 45.516,45.516c0,22.26 -15.989,40.79 -37.105,44.737l-3.134,-17.514c-0.452,-7.087 0.896,-12.207 5.272,-15.654c4.332,-3.412 5.019,-7.148 4.977,-13.469c-0.046,-6.812 -0.422,-15.685 -2.109,-22.555c-0.232,-0.95 -3.978,-5.791 -4.021,-2.103c-0.074,6.371 0.275,12.974 0.08,19.343c-0.111,3.63 -5.973,3.077 -6.044,0.052c-0.113,-4.827 0.054,-9.62 -0.298,-14.388c-0.858,-11.637 -5.41,-11.636 -6.268,0c-0.352,4.768 -0.184,9.561 -0.297,14.388c-0.072,3.025 -5.934,3.578 -6.045,-0.052c-0.194,-6.369 0.156,-12.972 0.081,-19.343c-0.043,-3.688 -3.79,1.153 -4.022,2.103c-1.687,6.87 -2.062,15.743 -2.108,22.555c-0.043,6.321 0.644,10.057 4.976,13.469c4.377,3.447 5.724,8.567 5.273,15.654l-3.135,17.514c-21.116,-3.947 -37.105,-22.477 -37.105,-44.737c0,-25.134 20.382,-45.516 45.516,-45.516Zm22.004,23.641c1.926,-3.939 4.822,-5.941 9.134,-5.111c0.382,2.608 -0.226,4.097 -2.766,4.693c-2.239,0.524 -4.245,1.024 -6.368,0.418Zm11.004,0.506c-1.392,0.593 -1.931,1.442 -2.468,3.489c-0.449,1.708 -0.493,2.836 -0.255,4.255c2.308,0.864 5.513,-6.708 2.723,-7.744Zm-5.928,1.305c-2.885,0.338 -5.868,1.235 -7.147,4.339c-2.16,5.247 -1.613,8.833 -0.794,7.572c0.819,-1.26 2.921,-3.119 4.624,-3.913c4.624,-2.158 7.115,-4.457 3.317,-7.998Zm11.713,6.608c-6.254,-0.568 -9.188,1.945 -9.189,7.913c0,0.683 6.604,0.165 7.147,-1.021c0.894,-1.956 3.655,-6.745 2.042,-6.892Zm-14.719,18.293c2.722,-2.325 4.43,-6.661 8.509,-7.544c3.818,-0.828 4.86,1.265 3.827,5.247c-2.92,3.661 -7.297,3.783 -12.336,2.297Zm-5.218,6.352c0.69,-3.209 8.036,-4.909 7.912,-3.062c-0.027,1.418 -0.724,2.672 -3.999,3.46c-1.22,0.293 -2.722,0 -3.913,-0.398Zm4.251,-19.616c-1.514,0.394 -2.256,1.546 -3.164,3.454c-0.391,2.174 -0.702,4.073 -0.468,5.934c2.505,-0.821 4.593,-2.321 5.58,-4.961c0.051,-1.476 -0.485,-2.951 -1.948,-4.427Zm-1.891,12.238c-0.929,-0.141 -1.49,0.132 -2.443,1.037c-0.794,0.756 -1.187,1.337 -1.525,2.164c0.937,1.211 5.103,-1.742 3.968,-3.201Zm-3.239,-37.428c-2.348,0.782 -2.989,2.703 -1.921,5.761c1.121,1.547 2.241,3.095 3.361,4.642c1.449,-3.468 2.255,-6.935 -1.44,-10.403Zm20.041,29.248c0.929,-0.142 1.49,0.131 2.443,1.037c0.795,0.756 1.187,1.337 1.524,2.163c-0.936,1.211 -5.102,-1.741 -3.967,-3.2Zm-9.757,12.731c0.758,-0.557 1.381,-0.577 2.645,-0.216c1.055,0.3 1.672,0.633 2.355,1.208c-0.267,1.507 -5.328,0.826 -5,-0.992Zm-23.027,-44.426c-0.87,0.749 -1.063,1.486 -0.982,3.09c0.069,1.339 0.295,2.164 0.794,3.135c1.868,0.095 2.444,-6.117 0.188,-6.225Zm10.743,-3.323c-2.014,0.236 -4.097,0.861 -4.989,3.029c-1.508,3.662 -1.126,6.165 -0.554,5.285c0.572,-0.88 2.038,-2.178 3.227,-2.732c3.228,-1.506 4.966,-3.111 2.316,-5.582Zm-10.812,-1.942c0.929,-0.141 1.491,0.132 2.443,1.037c0.795,0.756 1.186,1.336 1.524,2.163c-0.936,1.212 -5.102,-1.741 -3.967,-3.2Zm11.225,18.89c0.929,-0.141 1.49,0.132 2.442,1.037c0.795,0.757 1.187,1.337 1.525,2.164c-0.937,1.211 -5.102,-1.742 -3.967,-3.201Zm10.328,-10.078c-1.487,0.174 -3.026,0.636 -3.686,2.238c-1.115,2.706 -0.832,4.555 -0.41,3.906c0.423,-0.65 1.507,-1.609 2.385,-2.019c2.385,-1.113 3.67,-2.298 1.711,-4.125Zm-48.722,10.642c-1.925,-3.939 -4.821,-5.941 -9.133,-5.111c-0.382,2.608 0.226,4.097 2.766,4.693c2.239,0.524 4.245,1.024 6.367,0.418Zm-11.002,0.506c1.391,0.593 1.929,1.442 2.467,3.489c0.449,1.708 0.493,2.836 0.255,4.255c-2.308,0.864 -5.513,-6.708 -2.722,-7.744Zm5.926,1.305c2.885,0.338 5.869,1.235 7.147,4.339c2.161,5.247 1.614,8.833 0.794,7.572c-0.818,-1.26 -2.92,-3.119 -4.623,-3.913c-4.624,-2.158 -7.115,-4.457 -3.318,-7.998Zm-11.713,6.608c6.255,-0.568 9.189,1.945 9.189,7.913c0,0.683 -6.604,0.165 -7.146,-1.021c-0.895,-1.956 -3.655,-6.745 -2.043,-6.892Zm14.72,18.293c-2.722,-2.325 -4.431,-6.661 -8.508,-7.544c-3.82,-0.828 -4.861,1.265 -3.829,5.247c2.921,3.661 7.297,3.783 12.337,2.297Zm5.218,6.352c-0.69,-3.209 -8.036,-4.909 -7.913,-3.062c0.028,1.418 0.725,2.672 3.999,3.46c1.221,0.293 2.723,0 3.914,-0.398Zm-4.251,-19.616c1.513,0.394 2.256,1.546 3.164,3.454c0.391,2.174 0.702,4.073 0.468,5.934c-2.505,-0.821 -4.593,-2.321 -5.581,-4.961c-0.05,-1.476 0.486,-2.951 1.949,-4.427Zm1.89,12.238c0.93,-0.141 1.491,0.132 2.444,1.037c0.795,0.756 1.186,1.337 1.524,2.164c-0.937,1.211 -5.102,-1.742 -3.968,-3.201Zm3.24,-37.428c2.348,0.782 2.988,2.703 1.92,5.761c-1.12,1.547 -2.239,3.095 -3.36,4.642c-1.449,-3.468 -2.255,-6.935 1.44,-10.403Zm-20.041,29.248c-0.93,-0.142 -1.491,0.131 -2.443,1.037c-0.795,0.756 -1.187,1.337 -1.524,2.163c0.936,1.211 5.102,-1.741 3.967,-3.2Zm9.756,12.731c-0.757,-0.557 -1.38,-0.577 -2.644,-0.216c-1.055,0.3 -1.673,0.633 -2.355,1.208c0.267,1.507 5.328,0.826 4.999,-0.992Zm23.027,-44.426c0.87,0.749 1.065,1.486 0.982,3.09c-0.068,1.339 -0.294,2.164 -0.793,3.135c-1.868,0.095 -2.445,-6.117 -0.189,-6.225Zm-10.742,-3.323c2.013,0.236 4.096,0.861 4.988,3.029c1.509,3.662 1.127,6.165 0.554,5.285c-0.571,-0.88 -2.038,-2.178 -3.226,-2.732c-3.228,-1.506 -4.966,-3.111 -2.316,-5.582Zm10.811,-1.942c-0.928,-0.141 -1.49,0.132 -2.443,1.037c-0.794,0.756 -1.186,1.336 -1.524,2.163c0.937,1.212 5.103,-1.741 3.967,-3.2Zm-11.224,18.89c-0.929,-0.141 -1.49,0.132 -2.443,1.037c-0.794,0.757 -1.187,1.337 -1.525,2.164c0.937,1.211 5.103,-1.742 3.968,-3.201Zm-10.329,-10.078c1.488,0.174 3.027,0.636 3.687,2.238c1.114,2.706 0.832,4.555 0.409,3.906c-0.422,-0.65 -1.506,-1.609 -2.384,-2.019c-2.385,-1.113 -3.67,-2.298 -1.712,-4.125Zm25.811,-9.361c-1.919,0.639 -2.442,2.208 -1.569,4.708c0.915,1.264 1.831,2.528 2.746,3.792c1.185,-2.833 1.843,-5.667 -1.177,-8.5Z" style="fill:#ffd418;"/></g></g></svg>