<?xml version="1.0" encoding="UTF-8" standalone="no"?><!DOCTYPE svg PUBLIC "-//W3C//DTD SVG 1.1//EN" "http://www.w3.org/Graphics/SVG/1.1/DTD/svg11.dtd"><svg width="100%" height="100%" viewBox="0 0 240 240" version="1.1" xmlns="http://www.w3.org/2000/svg" xmlns:xlink="http://www.w3.org/1999/xlink" xml:space="preserve" xmlns:serif="http://www.serif.com/" style="fill-rule:evenodd;clip-rule:evenodd;stroke-linejoin:round;stroke-miterlimit:2;"><rect id="Standard" x="0" y="0" width="240" height="240" style="fill:none;"/><g id="Standard1" serif:id="Standard"><g id="EE"><path id="name" d="M93.869,174.564l3.095,-14.587l6.05,-0.426l-3.283,15.475c-0.153,0.758 -0.232,1.302 -0.238,1.631c-0.016,0.988 0.452,1.448 1.404,1.381c1.288,-0.091 2.501,-1.043 3.636,-2.857c1.136,-1.814 2.06,-3.941 2.773,-6.383c0.713,-2.441 1.084,-4.53 1.113,-6.265c-0.059,0.153 -0.243,0.278 -0.552,0.375c-0.309,0.096 -0.576,0.152 -0.8,0.168c-0.476,0.034 -0.843,-0.179 -1.101,-0.64c-0.258,-0.46 -0.383,-0.974 -0.373,-1.542c0.012,-0.719 0.239,-1.318 0.681,-1.797c0.441,-0.48 1.097,-0.75 1.965,-0.811c0.924,-0.065 1.59,0.254 1.998,0.957c0.408,0.704 0.602,1.624 0.583,2.762c-0.046,2.693 -0.529,5.604 -1.449,8.733c-0.92,3.128 -2.294,5.833 -4.123,8.114c-1.829,2.281 -4.074,3.515 -6.735,3.703c-1.625,0.115 -2.885,-0.238 -3.78,-1.056c-0.896,-0.819 -1.329,-2.111 -1.299,-3.877c0.004,-0.208 0.013,-0.417 0.029,-0.627c-2.659,4.306 -5.92,6.702 -9.782,7.186c-2.062,0.259 -3.685,-0.116 -4.871,-1.124c-1.186,-1.008 -1.824,-2.739 -1.917,-5.191c-0.077,-2.064 0.214,-4.384 0.873,-6.961c0.659,-2.577 1.804,-4.877 3.435,-6.899c1.632,-2.023 3.757,-3.199 6.376,-3.527c3.065,-0.385 4.651,0.858 4.759,3.73c0.063,1.675 -0.325,3.271 -1.164,4.788c-0.838,1.518 -1.98,2.796 -3.425,3.833c-1.444,1.038 -3,1.722 -4.667,2.051c-0.022,0.904 -0.028,1.506 -0.017,1.805c0.056,1.466 0.33,2.43 0.823,2.894c0.493,0.464 1.269,0.63 2.328,0.497c1.505,-0.189 2.779,-0.724 3.824,-1.607c1.044,-0.882 2.179,-2.166 3.403,-3.852l0.428,-0.054Zm55.304,-0.444l4.366,-12.03l-1.383,-0.139l0.607,-1.737l1.383,0.139l2.196,-5.983l6.338,-0.262c-0.423,1.096 -0.665,1.746 -0.725,1.949c-0.322,0.807 -0.914,2.441 -1.774,4.902l2.515,0.252l-0.607,1.737l-2.515,-0.252l-4.722,13.011c-0.239,0.635 -0.388,1.144 -0.447,1.528c-0.163,1.062 0.244,1.643 1.222,1.741c0.503,0.05 0.873,0.042 1.11,-0.024c-0.822,1.656 -1.655,2.741 -2.5,3.255c-0.845,0.515 -1.715,0.727 -2.609,0.638c-1.425,-0.143 -2.409,-0.707 -2.953,-1.69c-0.408,-0.738 -0.598,-1.622 -0.57,-2.652c-0.673,0.912 -1.35,1.605 -2.03,2.079c-1.509,1.05 -2.993,1.541 -4.451,1.475c-1.711,-0.079 -2.902,-0.618 -3.573,-1.619c-0.67,-1.001 -0.91,-2.213 -0.72,-3.637c0.084,-0.623 0.248,-1.324 0.494,-2.104c0.245,-0.78 0.495,-1.537 0.748,-2.271c0.254,-0.735 0.422,-1.205 0.506,-1.41c0.363,-1.028 0.711,-2.042 1.042,-3.041c0.331,-1 0.539,-1.811 0.622,-2.434c0.202,-1.513 -0.201,-2.293 -1.211,-2.339c-0.729,-0.034 -1.425,0.315 -2.087,1.046c-0.663,0.731 -1.243,1.697 -1.743,2.897l-4.772,14.154l-6.059,-0.278l1.785,-5.291c-3.082,3.873 -6.541,5.837 -10.377,5.892c-2.078,0.03 -3.65,-0.521 -4.718,-1.654c-1.067,-1.132 -1.511,-2.922 -1.333,-5.37c0.15,-2.06 0.695,-4.334 1.634,-6.823c0.938,-2.488 2.33,-4.648 4.174,-6.479c1.845,-1.831 4.087,-2.765 6.726,-2.803c3.088,-0.045 4.528,1.366 4.319,4.231c-0.122,1.672 -0.683,3.216 -1.684,4.632c-1.001,1.416 -2.276,2.56 -3.826,3.432c-1.551,0.873 -3.172,1.381 -4.866,1.524c-0.121,0.897 -0.193,1.494 -0.214,1.793c-0.107,1.462 0.059,2.451 0.498,2.967c0.44,0.515 1.193,0.765 2.26,0.75c1.516,-0.022 2.841,-0.414 3.977,-1.176c1.135,-0.762 2.404,-1.913 3.807,-3.454l0.482,-0.007l4.793,-14.209l6.059,0.277l-0.773,2.293c1.625,-1.597 3.377,-2.353 5.257,-2.267c1.43,0.066 2.511,0.533 3.241,1.402c0.73,0.87 0.983,2.15 0.756,3.841c-0.115,0.86 -0.341,1.812 -0.678,2.856c-0.338,1.044 -0.79,2.315 -1.357,3.811c-0.347,0.909 -0.671,1.797 -0.97,2.664c-0.299,0.867 -0.483,1.553 -0.55,2.057c-0.08,0.593 -0.015,1.059 0.194,1.397c0.209,0.338 0.621,0.521 1.239,0.549c0.841,0.038 1.557,-0.25 2.147,-0.864c0.59,-0.615 1.227,-1.578 1.911,-2.89l0.389,0.018Zm-65.84,-1.434c1.029,-0.19 1.996,-0.702 2.902,-1.537c0.907,-0.835 1.625,-1.841 2.154,-3.019c0.53,-1.179 0.772,-2.381 0.726,-3.607c-0.046,-1.227 -0.418,-1.796 -1.114,-1.709c-1.003,0.126 -1.95,1.192 -2.84,3.196c-0.891,2.005 -1.5,4.23 -1.828,6.676Zm33.866,-2.528c1.043,-0.075 2.061,-0.477 3.054,-1.207c0.993,-0.73 1.817,-1.651 2.474,-2.764c0.656,-1.113 1.028,-2.281 1.118,-3.505c0.089,-1.224 -0.217,-1.831 -0.919,-1.821c-1.011,0.015 -2.069,0.969 -3.175,2.864c-1.106,1.895 -1.957,4.039 -2.552,6.433Zm10.559,-26.489c-2.824,3.156 -5.923,4.792 -9.297,4.908c-1.896,0.065 -3.318,-0.38 -4.264,-1.336c-0.946,-0.955 -1.307,-2.489 -1.084,-4.6c0.188,-1.777 0.741,-3.746 1.659,-5.907c0.918,-2.162 2.241,-4.048 3.969,-5.66c1.728,-1.611 3.797,-2.458 6.206,-2.541c2.819,-0.097 4.098,1.091 3.837,3.563c-0.153,1.442 -0.703,2.783 -1.651,4.021c-0.948,1.239 -2.14,2.248 -3.576,3.029c-1.436,0.78 -2.928,1.248 -4.477,1.404c-0.133,0.775 -0.213,1.29 -0.24,1.548c-0.134,1.262 -0.006,2.111 0.382,2.546c0.388,0.436 1.069,0.637 2.043,0.604c1.384,-0.048 2.603,-0.41 3.658,-1.088c1.055,-0.677 2.241,-1.693 3.559,-3.047l0.148,-0.005l4.209,-12.366l5.539,-0.06l-0.809,2.394c0.971,-0.78 1.836,-1.38 2.595,-1.798c0.758,-0.419 1.548,-0.632 2.368,-0.641c0.821,-0.009 1.432,0.266 1.833,0.826c0.232,0.325 0.38,0.689 0.443,1.093l0.682,-1.858l5.539,0.073l-4.778,13.017c-0.125,0.306 -0.212,0.626 -0.264,0.958c-0.173,1.127 0.125,1.695 0.894,1.705c0.718,0.009 1.38,-0.284 1.985,-0.878c0.606,-0.595 1.143,-1.415 1.612,-2.461l4.513,-12.289l5.577,0.073l-8.12,22.206c-0.891,2.45 -2.057,4.14 -3.497,5.071c-1.441,0.93 -2.944,1.384 -4.508,1.364c-1.205,-0.016 -2.203,-0.42 -2.993,-1.213c-0.79,-0.792 -1.092,-1.79 -0.907,-2.993c0.173,-1.126 0.597,-2.044 1.271,-2.753c0.675,-0.709 1.492,-1.263 2.453,-1.661c0.96,-0.397 2.233,-0.817 3.816,-1.258l0.645,-1.684c-1.536,1.468 -3.215,2.189 -5.035,2.166c-1.231,-0.017 -2.166,-0.413 -2.804,-1.191c-0.638,-0.778 -0.839,-1.935 -0.603,-3.47c0.099,-0.64 0.329,-1.471 0.692,-2.492l2.713,-7.388c-0.539,0.484 -1.21,0.731 -2.013,0.739c-0.564,0.006 -0.924,-0.124 -1.082,-0.392c-0.157,-0.267 -0.254,-0.657 -0.29,-1.17c-0.034,-0.333 -0.079,-0.576 -0.136,-0.729c-0.057,-0.154 -0.188,-0.229 -0.393,-0.227c-0.539,0.006 -1.008,0.12 -1.408,0.342c-0.4,0.223 -0.93,0.607 -1.59,1.152l-4.973,14.672l-5.539,0.06l1.491,-4.378Zm16.327,10.439c0.461,0.006 0.933,-0.225 1.417,-0.693c0.483,-0.468 0.92,-1.225 1.313,-2.271l0.81,-2.26c-1.43,0.443 -2.564,0.967 -3.402,1.572c-0.838,0.604 -1.332,1.393 -1.482,2.365c-0.047,0.308 0.062,0.597 0.329,0.87c0.266,0.273 0.604,0.412 1.015,0.417Zm-46.997,-9.104c-0.966,1.367 -2.161,2.553 -3.585,3.56c-2.134,1.507 -4.375,2.368 -6.725,2.582c-2.324,0.211 -4.048,-0.276 -5.172,-1.461c-1.124,-1.185 -1.638,-2.761 -1.542,-4.726c0.068,-1.397 0.424,-2.827 1.068,-4.288c0.643,-1.462 1.527,-2.772 2.652,-3.93c1.124,-1.159 2.411,-1.984 3.858,-2.476c-0.763,-0.497 -1.317,-1.135 -1.66,-1.915c-0.343,-0.78 -0.493,-1.623 -0.449,-2.528c0.066,-1.345 0.495,-2.697 1.286,-4.057c0.791,-1.359 1.851,-2.505 3.181,-3.437c1.329,-0.932 2.773,-1.469 4.331,-1.611c1.609,-0.146 2.903,0.161 3.883,0.921c0.98,0.761 1.432,1.904 1.358,3.43c-0.056,1.138 -0.384,2.121 -0.983,2.948c-0.6,0.827 -1.283,1.276 -2.049,1.345c-0.69,0.063 -1.273,-0.232 -1.75,-0.883c0.468,-0.198 0.884,-0.66 1.251,-1.389c0.366,-0.728 0.566,-1.442 0.6,-2.14c0.037,-0.75 -0.141,-1.281 -0.532,-1.593c-0.392,-0.312 -0.881,-0.442 -1.469,-0.388c-0.74,0.067 -1.424,0.393 -2.05,0.978c-0.626,0.585 -1.125,1.313 -1.498,2.184c-0.374,0.87 -0.582,1.759 -0.627,2.664c-0.06,1.241 0.205,2.305 0.798,3.191c0.592,0.886 1.531,1.438 2.817,1.656c-1.316,0.403 -2.523,1.156 -3.619,2.26c-1.097,1.104 -1.971,2.349 -2.624,3.735c-0.652,1.385 -1.008,2.686 -1.068,3.901c-0.057,1.164 0.197,2.081 0.762,2.751c0.565,0.669 1.46,0.948 2.686,0.837c1.277,-0.116 2.629,-0.594 4.055,-1.431c1.427,-0.838 2.502,-1.895 3.225,-3.172l0.126,0.045l3.562,-12.574l5.528,-0.347l-3.779,13.342c-0.178,0.653 -0.278,1.122 -0.3,1.406c-0.065,0.852 0.337,1.251 1.207,1.196c1.177,-0.074 2.329,-0.891 3.456,-2.452c1.126,-1.561 2.076,-3.394 2.849,-5.498c0.774,-2.104 1.218,-3.905 1.334,-5.402c-0.061,0.132 -0.235,0.239 -0.522,0.322c-0.286,0.082 -0.532,0.129 -0.736,0.142c-0.435,0.028 -0.759,-0.158 -0.97,-0.556c-0.211,-0.397 -0.298,-0.842 -0.26,-1.332c0.048,-0.62 0.285,-1.136 0.711,-1.548c0.427,-0.412 1.037,-0.643 1.83,-0.693c0.845,-0.053 1.435,0.225 1.77,0.833c0.335,0.609 0.465,1.404 0.389,2.385c-0.179,2.324 -0.767,4.834 -1.765,7.53c-0.997,2.696 -2.387,5.025 -4.168,6.987c-1.781,1.962 -3.888,3.019 -6.319,3.172c-1.485,0.093 -2.613,-0.215 -3.386,-0.925c-0.774,-0.709 -1.101,-1.826 -0.984,-3.349c0.005,-0.067 0.011,-0.135 0.018,-0.202Zm22.496,-6.319c0.953,-0.084 1.892,-0.449 2.816,-1.097c0.924,-0.647 1.699,-1.457 2.325,-2.427c0.626,-0.971 0.995,-1.985 1.107,-3.04c0.112,-1.056 -0.153,-1.573 -0.794,-1.551c-0.922,0.031 -1.912,0.874 -2.967,2.526c-1.056,1.653 -1.885,3.516 -2.487,5.589Z" style="fill:#2a3432;fill-rule:nonzero;"/><path id="mark" d="M120.113,23.743c25.179,0 45.598,20.419 45.598,45.598c0,22.3 -16.018,40.863 -37.172,44.817l-3.14,-17.545c-0.452,-7.1 0.898,-12.229 5.282,-15.682c4.34,-3.418 5.028,-7.162 4.986,-13.494c-0.047,-6.824 -0.423,-15.713 -2.112,-22.595c-0.233,-0.952 -3.986,-5.801 -4.029,-2.107c-0.075,6.382 0.275,12.997 0.08,19.378c-0.111,3.637 -5.984,3.082 -6.054,0.052c-0.114,-4.836 0.054,-9.637 -0.299,-14.414c-0.86,-11.658 -5.42,-11.657 -6.28,0c-0.353,4.777 -0.183,9.578 -0.298,14.414c-0.071,3.03 -5.943,3.585 -6.055,-0.052c-0.194,-6.381 0.156,-12.996 0.081,-19.378c-0.043,-3.694 -3.796,1.155 -4.029,2.107c-1.69,6.882 -2.065,15.771 -2.112,22.595c-0.043,6.332 0.645,10.076 4.985,13.494c4.385,3.453 5.734,8.582 5.283,15.682l-3.141,17.545c-21.154,-3.954 -37.172,-22.517 -37.172,-44.817c0,-25.179 20.419,-45.598 45.598,-45.598Zm22.043,23.683c1.931,-3.946 4.831,-5.952 9.151,-5.12c0.382,2.613 -0.226,4.104 -2.771,4.701c-2.243,0.525 -4.253,1.027 -6.38,0.419Zm11.024,0.508c-1.394,0.593 -1.934,1.444 -2.472,3.494c-0.449,1.712 -0.494,2.842 -0.256,4.263c2.313,0.866 5.524,-6.72 2.728,-7.757Zm-5.938,1.306c-2.89,0.34 -5.879,1.237 -7.16,4.347c-2.164,5.257 -1.616,8.849 -0.796,7.587c0.821,-1.263 2.926,-3.125 4.632,-3.921c4.634,-2.162 7.128,-4.465 3.324,-8.013Zm11.734,6.621c-6.265,-0.569 -9.205,1.948 -9.206,7.927c0,0.684 6.617,0.165 7.16,-1.024c0.896,-1.958 3.662,-6.757 2.046,-6.903Zm-14.746,18.325c2.728,-2.329 4.439,-6.672 8.524,-7.557c3.825,-0.83 4.87,1.267 3.835,5.256c-2.925,3.668 -7.311,3.79 -12.359,2.301Zm-5.227,6.364c0.691,-3.215 8.05,-4.918 7.926,-3.068c-0.027,1.421 -0.725,2.677 -4.006,3.466c-1.222,0.294 -2.727,0 -3.92,-0.398Zm4.259,-19.652c-1.517,0.395 -2.26,1.549 -3.17,3.46c-0.392,2.178 -0.704,4.081 -0.469,5.945c2.51,-0.822 4.601,-2.325 5.59,-4.969c0.052,-1.479 -0.485,-2.957 -1.951,-4.436Zm-1.895,12.261c-0.93,-0.142 -1.493,0.132 -2.448,1.038c-0.795,0.758 -1.188,1.339 -1.527,2.168c0.938,1.214 5.112,-1.745 3.975,-3.206Zm-3.245,-37.496c-2.352,0.784 -2.994,2.708 -1.924,5.772c1.123,1.55 2.245,3.1 3.367,4.65c1.452,-3.474 2.259,-6.948 -1.443,-10.422Zm20.078,29.301c0.93,-0.142 1.492,0.131 2.447,1.038c0.797,0.758 1.189,1.34 1.527,2.168c-0.938,1.213 -5.112,-1.745 -3.974,-3.206Zm-9.775,12.753c0.759,-0.557 1.383,-0.577 2.65,-0.216c1.057,0.301 1.674,0.634 2.359,1.21c-0.268,1.511 -5.338,0.828 -5.009,-0.994Zm-23.068,-44.505c-0.872,0.75 -1.066,1.488 -0.984,3.095c0.068,1.341 0.296,2.168 0.795,3.141c1.871,0.095 2.449,-6.128 0.189,-6.236Zm10.762,-3.33c-2.018,0.237 -4.104,0.864 -4.998,3.035c-1.51,3.668 -1.128,6.176 -0.556,5.295c0.574,-0.882 2.043,-2.182 3.233,-2.738c3.234,-1.508 4.976,-3.116 2.321,-5.592Zm-10.832,-1.945c0.931,-0.141 1.494,0.132 2.448,1.039c0.796,0.758 1.188,1.339 1.527,2.167c-0.938,1.214 -5.112,-1.744 -3.975,-3.206Zm11.246,18.925c0.93,-0.142 1.493,0.132 2.446,1.038c0.797,0.758 1.189,1.339 1.527,2.168c-0.938,1.214 -5.111,-1.745 -3.973,-3.206Zm10.346,-10.097c-1.49,0.174 -3.031,0.638 -3.692,2.242c-1.117,2.711 -0.834,4.564 -0.411,3.913c0.424,-0.651 1.509,-1.612 2.389,-2.023c2.39,-1.115 3.677,-2.302 1.714,-4.132Zm-48.809,10.661c-1.93,-3.946 -4.83,-5.952 -9.15,-5.12c-0.383,2.613 0.226,4.104 2.771,4.701c2.243,0.525 4.253,1.027 6.379,0.419Zm-11.023,0.508c1.394,0.593 1.933,1.444 2.472,3.494c0.449,1.712 0.494,2.842 0.256,4.263c-2.313,0.866 -5.523,-6.72 -2.728,-7.757Zm5.937,1.306c2.89,0.34 5.88,1.237 7.16,4.347c2.165,5.257 1.617,8.849 0.796,7.587c-0.82,-1.263 -2.925,-3.125 -4.631,-3.921c-4.634,-2.162 -7.128,-4.465 -3.325,-8.013Zm-11.733,6.621c6.265,-0.569 9.205,1.948 9.205,7.927c0,0.684 -6.616,0.165 -7.159,-1.024c-0.897,-1.958 -3.662,-6.757 -2.046,-6.903Zm14.746,18.325c-2.728,-2.329 -4.44,-6.672 -8.524,-7.557c-3.826,-0.83 -4.869,1.267 -3.836,5.256c2.926,3.668 7.311,3.79 12.36,2.301Zm5.227,6.364c-0.691,-3.215 -8.05,-4.918 -7.927,-3.068c0.027,1.421 0.726,2.677 4.006,3.466c1.223,0.294 2.728,0 3.921,-0.398Zm-4.259,-19.652c1.516,0.395 2.26,1.549 3.17,3.46c0.392,2.178 0.704,4.081 0.469,5.945c-2.51,-0.822 -4.601,-2.325 -5.591,-4.969c-0.05,-1.479 0.486,-2.957 1.952,-4.436Zm1.894,12.261c0.931,-0.142 1.494,0.132 2.448,1.038c0.796,0.758 1.188,1.339 1.527,2.168c-0.938,1.214 -5.111,-1.745 -3.975,-3.206Zm3.246,-37.496c2.352,0.784 2.993,2.708 1.923,5.772c-1.122,1.55 -2.243,3.1 -3.366,4.65c-1.452,-3.474 -2.259,-6.948 1.443,-10.422Zm-20.078,29.301c-0.931,-0.142 -1.493,0.131 -2.447,1.038c-0.796,0.758 -1.189,1.34 -1.527,2.168c0.938,1.213 5.112,-1.745 3.974,-3.206Zm9.774,12.753c-0.758,-0.557 -1.382,-0.577 -2.649,-0.216c-1.057,0.301 -1.675,0.634 -2.359,1.21c0.268,1.511 5.338,0.828 5.008,-0.994Zm23.068,-44.505c0.872,0.75 1.067,1.488 0.984,3.095c-0.067,1.341 -0.295,2.168 -0.794,3.141c-1.871,0.095 -2.449,-6.128 -0.19,-6.236Zm-10.761,-3.33c2.017,0.237 4.103,0.864 4.997,3.035c1.511,3.668 1.129,6.176 0.556,5.295c-0.573,-0.882 -2.043,-2.182 -3.232,-2.738c-3.234,-1.508 -4.976,-3.116 -2.321,-5.592Zm10.831,-1.945c-0.93,-0.141 -1.493,0.132 -2.447,1.039c-0.796,0.758 -1.189,1.339 -1.527,2.167c0.939,1.214 5.112,-1.744 3.974,-3.206Zm-11.245,18.925c-0.93,-0.142 -1.493,0.132 -2.447,1.038c-0.796,0.758 -1.189,1.339 -1.527,2.168c0.938,1.214 5.112,-1.745 3.974,-3.206Zm-10.347,-10.097c1.491,0.174 3.032,0.638 3.693,2.242c1.116,2.711 0.834,4.564 0.41,3.913c-0.423,-0.651 -1.508,-1.612 -2.388,-2.023c-2.39,-1.115 -3.677,-2.302 -1.715,-4.132Zm25.858,-9.378c-1.923,0.64 -2.447,2.212 -1.573,4.717c0.918,1.266 1.835,2.533 2.751,3.799c1.187,-2.839 1.847,-5.677 -1.178,-8.516Z" style="fill:#8a368c;"/></g></g></svg>